<?xml version="1.0" encoding="UTF-8" standalone="no"?>
<!DOCTYPE svg PUBLIC "-//W3C//DTD SVG 1.1//EN" "http://www.w3.org/Graphics/SVG/1.1/DTD/svg11.dtd">
<svg width="100%" height="100%" viewBox="0 0 434 101" version="1.1" xmlns="http://www.w3.org/2000/svg" xmlns:xlink="http://www.w3.org/1999/xlink" xml:space="preserve" xmlns:serif="http://www.serif.com/" style="fill-rule:evenodd;clip-rule:evenodd;stroke-linejoin:round;stroke-miterlimit:2;">
    <g id="Artboard1" transform="matrix(0.123569,0,0,0.0404441,0,0)">
        <rect x="0" y="0" width="3507.87" height="2480.32" style="fill:none;"/>
        <g transform="matrix(1.32051,0,0,4.03454,2151.43,-3353.05)">
            <g transform="matrix(416.667,0,0,416.667,924.333,1206.6)">
            </g>
            <text x="573.083px" y="1206.6px" style="font-family:'SourceSansPro-SemiBold', 'Source Sans Pro', sans-serif;font-weight:600;font-size:416.667px;fill:url(#_Linear1);">m</text>
        </g>
        <g transform="matrix(1.32051,0,0,4.03454,2070.09,-3269.56)">
            <g transform="matrix(416.667,0,0,416.667,924.333,1206.6)">
            </g>
            <text x="573.083px" y="1206.6px" style="font-family:'SourceSansPro-SemiBold', 'Source Sans Pro', sans-serif;font-weight:600;font-size:416.667px;fill:url(#_Linear2);">m</text>
        </g>
        <g transform="matrix(1.32051,0,0,4.03454,-562.516,-3181.52)">
            <g transform="matrix(416.667,0,0,416.667,2858.92,1206.6)">
            </g>
            <text x="573.083px" y="1206.6px" style="font-family:'SourceSansPro-SemiBold', 'Source Sans Pro', sans-serif;font-weight:600;font-size:416.667px;fill:rgb(32,148,243);">multiv<tspan x="1732.25px 1943.5px 2096.42px " y="1206.6px 1206.6px 1206.6px ">ers</tspan>um</text>
        </g>
    </g>
    <defs>
        <linearGradient id="_Linear1" x1="0" y1="0" x2="1" y2="0" gradientUnits="userSpaceOnUse" gradientTransform="matrix(292.917,0,0,209.583,603.5,1101.81)"><stop offset="0" style="stop-color:rgb(32,148,243);stop-opacity:0"/><stop offset="0.58" style="stop-color:rgb(32,148,243);stop-opacity:0.19"/><stop offset="0.8" style="stop-color:rgb(32,148,243);stop-opacity:0.6"/><stop offset="1" style="stop-color:rgb(32,148,243);stop-opacity:1"/></linearGradient>
        <linearGradient id="_Linear2" x1="0" y1="0" x2="1" y2="0" gradientUnits="userSpaceOnUse" gradientTransform="matrix(292.917,0,0,209.583,603.5,1101.81)"><stop offset="0" style="stop-color:rgb(32,148,243);stop-opacity:0"/><stop offset="0.58" style="stop-color:rgb(32,148,243);stop-opacity:0.19"/><stop offset="0.8" style="stop-color:rgb(32,148,243);stop-opacity:0.6"/><stop offset="1" style="stop-color:rgb(32,148,243);stop-opacity:1"/></linearGradient>
    </defs>
</svg>
